# xmcd
# Copyright (C) 1995-1998 Ti Kan
#
# Track frame offsets:
#       150
#       10957
#       22153
#       33680
#       44820
#       60439
#       74981
#       84628
#       96056
#       106136
#       123179
#       140785
#       158262
#
# Disc length: 2260 seconds
#
# Revision: 0
# Processed by: cddbd v1.5.2PL0 Copyright (c) Steve Scherf et al.
# Submitted via: CD-Import v1.0
#
DISCID=b508d20d
DTITLE=Max And The Tatraplan - Max And The Tatraplan
DYEAR=08
DGENRE=
TTITLE0=Heaven's Bell
TTITLE1=You Cause This Fire
TTITLE2=Thank You For Coming
TTITLE3=Cheers Then And Good Bye
TTITLE4=Back Home
TTITLE5=No Way To Be
TTITLE6=You Don't Know
TTITLE7=She's The Girl
TTITLE8=Just Another Joke
TTITLE9=I Won't Ever
TTITLE10=As Always
TTITLE11=I Won't Everoop
TTITLE12=As Always Difujd
EXTD=
EXTT0=
EXTT1=
EXTT2=
EXTT3=
EXTT4=
EXTT5=
EXTT6=
EXTT7=
EXTT8=
EXTT9=
EXTT10=
EXTT11=
EXTT12=
PLAYORDER=
